<svg width="294" height="36" viewBox="0 0 294 36" fill="none" xmlns="http://www.w3.org/2000/svg">
<path d="M0.47 0.855999H9.02V11.268H17.114V0.855999H25.702V27H17.114V16.74H9.02V27H0.47V0.855999ZM38.2824 27.304C36.6357 27.304 35.0904 26.8733 33.6464 26.012C32.2277 25.1253 31.0877 23.9347 30.2264 22.44C29.365 20.92 28.9344 19.2353 28.9344 17.386C28.9344 15.562 29.365 13.9153 30.2264 12.446C31.0877 10.9513 32.2404 9.786 33.6844 8.95C35.1284 8.114 36.661 7.696 38.2824 7.696C39.5997 7.696 40.8157 8.06333 41.9304 8.798C43.0704 9.53267 43.9317 10.6347 44.5144 12.104V7.696H52.4944V27H44.5144V23.466C43.2477 26.0247 41.1704 27.304 38.2824 27.304ZM40.7524 21.3C41.7657 21.3 42.627 20.9453 43.3364 20.236C44.071 19.5013 44.4637 18.64 44.5144 17.652V17.348C44.4637 16.3347 44.0584 15.4733 43.2984 14.764C42.5637 14.0547 41.715 13.7 40.7524 13.7C39.6884 13.7 38.7764 14.08 38.0164 14.84C37.2817 15.5747 36.9144 16.4613 36.9144 17.5C36.9144 18.564 37.2944 19.4633 38.0544 20.198C38.8144 20.9327 39.7137 21.3 40.7524 21.3ZM56.3434 8.228H64.3614V11.534C65.5774 8.97533 67.642 7.696 70.5554 7.696C72.2527 7.696 73.8107 8.12667 75.2294 8.988C76.6734 9.824 77.8007 10.9893 78.6114 12.484C79.4474 13.9787 79.8654 15.6507 79.8654 17.5C79.8654 19.3493 79.4347 21.0213 78.5734 22.516C77.7374 24.0107 76.5974 25.1887 75.1534 26.05C73.7347 26.886 72.2147 27.304 70.5934 27.304C67.7054 27.304 65.628 26.0247 64.3614 23.466V31.94L56.3434 33.46V8.228ZM68.1614 21.3C69.2 21.3 70.0867 20.92 70.8214 20.16C71.556 19.4 71.9234 18.5133 71.9234 17.5C71.9234 16.436 71.5434 15.5367 70.7834 14.802C70.0487 14.0673 69.1747 13.7 68.1614 13.7C67.1227 13.7 66.236 14.0673 65.5014 14.802C64.7667 15.5113 64.3994 16.36 64.3994 17.348V17.5C64.3994 18.564 64.7667 19.4633 65.5014 20.198C66.2614 20.9327 67.148 21.3 68.1614 21.3ZM82.7652 8.228H90.7832V11.534C91.9992 8.97533 94.0639 7.696 96.9772 7.696C98.6746 7.696 100.233 8.12667 101.651 8.988C103.095 9.824 104.223 10.9893 105.033 12.484C105.869 13.9787 106.287 15.6507 106.287 17.5C106.287 19.3493 105.857 21.0213 104.995 22.516C104.159 24.0107 103.019 25.1887 101.575 26.05C100.157 26.886 98.6366 27.304 97.0152 27.304C94.1272 27.304 92.0499 26.0247 90.7832 23.466V31.94L82.7652 33.46V8.228ZM94.5832 21.3C95.6219 21.3 96.5086 20.92 97.2432 20.16C97.9779 19.4 98.3452 18.5133 98.3452 17.5C98.3452 16.436 97.9652 15.5367 97.2052 14.802C96.4706 14.0673 95.5966 13.7 94.5832 13.7C93.5446 13.7 92.6579 14.0673 91.9232 14.802C91.1886 15.5113 90.8212 16.36 90.8212 17.348V17.5C90.8212 18.564 91.1886 19.4633 91.9232 20.198C92.6832 20.9327 93.5699 21.3 94.5832 21.3ZM119.295 35.702C117.902 35.702 116.572 35.5627 115.305 35.284L115.913 29.66C116.901 29.812 117.813 29.888 118.649 29.888C120.144 29.888 121.284 29.432 122.069 28.52C122.854 27.6333 123.26 25.9487 123.285 23.466C121.968 25.9993 119.852 27.266 116.939 27.266C114.482 27.266 112.556 26.4047 111.163 24.682C109.795 22.934 109.111 20.5273 109.111 17.462V7.962H117.091V18.64C117.091 19.5013 117.332 20.2233 117.813 20.806C118.294 21.3633 118.953 21.642 119.789 21.642C120.65 21.642 121.347 21.2747 121.879 20.54C122.436 19.8053 122.715 18.8427 122.715 17.652V7.962H130.733V22.174C130.733 26.582 129.745 29.9387 127.769 32.244C125.793 34.5493 122.968 35.702 119.295 35.702ZM222.413 27.608C219.88 27.608 217.574 27.0127 215.497 25.822C213.445 24.606 211.811 22.9593 210.595 20.882C209.404 18.7793 208.809 16.4613 208.809 13.928C208.809 11.344 209.392 9.01333 210.557 6.936C211.722 4.85867 213.318 3.23733 215.345 2.072C217.372 0.881333 219.652 0.286 222.185 0.286C223.553 0.286 224.896 0.450666 226.213 0.779998C227.53 1.10933 228.658 1.578 229.595 2.186L228.569 8.076C226.745 7.392 225.098 7.05 223.629 7.05C221.602 7.05 220.044 7.64533 218.955 8.836C217.866 10.0013 217.321 11.686 217.321 13.89C217.321 16.0433 217.891 17.728 219.031 18.944C220.196 20.1347 221.805 20.73 223.857 20.73C224.642 20.73 225.377 20.654 226.061 20.502C226.745 20.35 227.581 20.0713 228.569 19.666L229.633 25.67C227.429 26.962 225.022 27.608 222.413 27.608ZM240.528 27.304C238.882 27.304 237.336 26.8733 235.892 26.012C234.474 25.1253 233.334 23.9347 232.472 22.44C231.611 20.92 231.18 19.2353 231.18 17.386C231.18 15.562 231.611 13.9153 232.472 12.446C233.334 10.9513 234.486 9.786 235.93 8.95C237.374 8.114 238.907 7.696 240.528 7.696C241.846 7.696 243.062 8.06333 244.176 8.798C245.316 9.53267 246.178 10.6347 246.76 12.104V7.696H254.74V27H246.76V23.466C245.494 26.0247 243.416 27.304 240.528 27.304ZM242.998 21.3C244.012 21.3 244.873 20.9453 245.582 20.236C246.317 19.5013 246.71 18.64 246.76 17.652V17.348C246.71 16.3347 246.304 15.4733 245.544 14.764C244.81 14.0547 243.961 13.7 242.998 13.7C241.934 13.7 241.022 14.08 240.262 14.84C239.528 15.5747 239.16 16.4613 239.16 17.5C239.16 18.564 239.54 19.4633 240.3 20.198C241.06 20.9327 241.96 21.3 242.998 21.3ZM258.589 8.228H266.607V12.104C267.19 10.6093 267.975 9.50733 268.963 8.798C269.977 8.06333 271.155 7.696 272.497 7.696L273.599 13.89C271.193 13.89 269.419 14.156 268.279 14.688C267.165 15.1947 266.607 16.0053 266.607 17.12V27H258.589V8.228ZM285.39 27.304C283.288 27.304 281.413 26.886 279.766 26.05C278.145 25.1887 276.878 24.0233 275.966 22.554C275.054 21.0593 274.598 19.3747 274.598 17.5C274.598 15.5747 275.067 13.8647 276.004 12.37C276.942 10.8753 278.208 9.72267 279.804 8.912C281.4 8.10133 283.174 7.696 285.124 7.696C286.999 7.696 288.595 8.114 289.912 8.95C291.255 9.76067 292.256 10.8753 292.914 12.294C293.573 13.6873 293.902 15.258 293.902 17.006C293.902 17.462 293.877 17.7913 293.826 17.994L282.426 19.476C282.73 20.3627 283.224 21.0087 283.908 21.414C284.592 21.794 285.492 21.984 286.606 21.984C288.329 21.984 290.191 21.5407 292.192 20.654L293.142 25.746C290.786 26.7847 288.202 27.304 285.39 27.304ZM288.012 14.688C287.607 13.092 286.644 12.294 285.124 12.294C284.212 12.294 283.49 12.636 282.958 13.32C282.426 14.004 282.148 14.8907 282.122 15.98L288.012 14.688Z" fill="#2F2E40"/>
<path d="M135.14 0.855999H144.564C148.465 0.855999 151.48 1.616 153.608 3.136C155.761 4.656 156.838 6.784 156.838 9.52C156.838 11.2427 156.306 12.75 155.242 14.042C154.203 15.334 152.772 16.3347 150.948 17.044C149.149 17.728 147.148 18.07 144.944 18.07H143.348V27H135.14V0.855999ZM144.982 12.788C146.325 12.788 147.363 12.5093 148.098 11.952C148.833 11.3947 149.2 10.584 149.2 9.52C149.2 8.456 148.833 7.658 148.098 7.126C147.389 6.594 146.35 6.328 144.982 6.328H143.348V12.712C143.855 12.7627 144.399 12.788 144.982 12.788ZM169.356 27.304C167.354 27.304 165.568 26.9493 163.998 26.24C162.452 25.5307 161.249 24.53 160.388 23.238C159.526 21.946 159.096 20.4767 159.096 18.83V7.962H166.924V18.716C166.924 19.552 167.152 20.2107 167.608 20.692C168.089 21.148 168.684 21.376 169.394 21.376C170.078 21.376 170.635 21.148 171.066 20.692C171.522 20.2107 171.75 19.552 171.75 18.716V7.962H179.426V18.83C179.426 20.502 178.995 21.984 178.134 23.276C177.298 24.5427 176.12 25.5307 174.6 26.24C173.08 26.9493 171.332 27.304 169.356 27.304ZM183.109 8.228H191.127V11.534C192.343 8.97533 194.408 7.696 197.321 7.696C199.018 7.696 200.576 8.12667 201.995 8.988C203.439 9.824 204.566 10.9893 205.377 12.484C206.213 13.9787 206.631 15.6507 206.631 17.5C206.631 19.3493 206.2 21.0213 205.339 22.516C204.503 24.0107 203.363 25.1887 201.919 26.05C200.5 26.886 198.98 27.304 197.359 27.304C194.471 27.304 192.394 26.0247 191.127 23.466V31.94L183.109 33.46V8.228ZM194.927 21.3C195.966 21.3 196.852 20.92 197.587 20.16C198.322 19.4 198.689 18.5133 198.689 17.5C198.689 16.436 198.309 15.5367 197.549 14.802C196.814 14.0673 195.94 13.7 194.927 13.7C193.888 13.7 193.002 14.0673 192.267 14.802C191.532 15.5113 191.165 16.36 191.165 17.348V17.5C191.165 18.564 191.532 19.4633 192.267 20.198C193.027 20.9327 193.914 21.3 194.927 21.3Z" fill="#FF9335"/>
</svg>
